<?xml version="1.0" encoding="utf-8"?>
<!-- Generator: Adobe Illustrator 24.1.2, SVG Export Plug-In . SVG Version: 6.00 Build 0)  -->
<svg version="1.1" id="katman_1" xmlns="http://www.w3.org/2000/svg" xmlns:xlink="http://www.w3.org/1999/xlink" x="0px" y="0px"
	 viewBox="0 0 1366 768" style="enable-background:new 0 0 1366 768;" xml:space="preserve">
<style type="text/css">
	.st0{fill:#0F0202;}
	.st1{fill:#FCFCFC;}
	.st2{fill:#070404;}
	.st3{fill:#070505;}
	.st4{fill:#0C0606;}
	.st5{fill:#FFFFFF;}
</style>
<g>
	<g>
		<g>
			<g>
				<rect x="494" y="192.7" class="st0" width="307" height="331.1"/>
			</g>
		</g>
		<g>
			<g>
				<path d="M800.2,193.5V523H494.9V193.5H800.2 M801.9,191.9H493.2v332.7h308.8V191.9L801.9,191.9z"/>
			</g>
		</g>
	</g>
	<g>
		<g>
			<path class="st1" d="M491.7,194.5c9.1-1.3,19.9-2.2,31.8-2.2c21.5,0,36.8,4.6,46.9,13.4c10.3,8.8,16.3,21.3,16.3,38.7
				c0,17.6-5.8,32-16.7,41.9c-10.8,10.1-28.7,15.5-51.2,15.5c-10.7,0-19.6-0.5-27.2-1.3V194.5z M506.6,289.7
				c3.8,0.6,9.3,0.8,15.1,0.8c32,0,49.4-16.6,49.4-45.7c0.2-25.4-15.3-41.6-46.9-41.6c-7.7,0-13.6,0.6-17.5,1.4L506.6,289.7
				L506.6,289.7z"/>
		</g>
	</g>
	<g>
		<g>
			<path class="st2" d="M649.9,250.3h-45.1v38.9h50.2v11.7h-65.2V193h62.6v11.7h-47.6v34.1h45.1L649.9,250.3L649.9,250.3z"/>
		</g>
	</g>
	<g>
		<g>
			<path class="st1" d="M727.6,300.8L689.8,193H706l18.1,53.1c5,14.5,9.3,27.7,12.4,40.3h0.4c3.3-12.5,8.1-26.1,13.2-40.1l19.6-53.2
				h16l-41.4,107.7H727.6z"/>
		</g>
	</g>
	<g>
		<g>
			<path class="st3" d="M569.2,361.2h-45.1V400h50.2v11.7h-65.2V304h62.6v11.7h-47.6v34.1h45.1L569.2,361.2L569.2,361.2z"/>
		</g>
	</g>
	<g>
		<g>
			<path class="st1" d="M618,304h15V400h49.5v11.7H618L618,304L618,304z"/>
		</g>
	</g>
	<g>
		<g>
			<path class="st0" d="M796,358.3c0,37.1-24.2,56.7-53.8,56.7c-30.6,0-52.1-22.1-52.1-54.7c0-34.2,22.9-56.6,53.8-56.6
				C775.5,303.8,796,326.4,796,358.3z M706,360.1c0,23,13.4,43.6,37,43.6c23.7,0,37.1-20.3,37.1-44.8c0-21.4-12-43.8-37-43.8
				C718.4,315.2,706,336.4,706,360.1z"/>
			<path d="M742.1,415.9c-31.2,0-53-22.8-53-55.5c0-33.8,22.5-57.4,54.7-57.4c31.7,0,53,22.2,53,55.3
				C796.8,398.1,769.4,415.9,742.1,415.9z M743.9,304.6c-31.2,0-52.9,22.9-52.9,55.8c0,31.7,21.1,53.9,51.2,53.9
				c32.2,0,52.9-22,52.9-55.9C795.1,326.2,774.5,304.6,743.9,304.6z M743,404.6c-24.8,0-37.8-22.4-37.8-44.5
				c0-12.4,3.4-23.7,9.4-31.8c6.8-9.1,16.7-13.9,28.6-13.9c0,0,0,0,0,0c26,0,37.8,23.1,37.8,44.6C781,385.8,765.4,404.6,743,404.6z
				 M743.2,316c-11.3,0-20.6,4.6-27.1,13.2c-5.9,7.9-9.1,18.8-9.1,30.9c0,21.3,12.4,42.8,36.1,42.8c25,0,36.3-22.1,36.3-43.9
				C779.3,338.3,768,316,743.2,316C743.2,316,743.2,316,743.2,316z"/>
		</g>
	</g>
	<g>
		<g>
			<path class="st1" d="M493.4,417.8c7.2-1.1,16.7-2.1,28.7-2.1c14.8,0,25.6,3.2,32.5,9c6.4,5.1,10.1,13,10.1,22.5
				c0,9.8-3.1,17.4-8.9,23C547.9,478,535,482,520.4,482c-4.5,0-8.6-0.2-12-1v43.2h-15L493.4,417.8L493.4,417.8z M508.4,469.7
				c3.3,0.8,7.4,1.1,12.4,1.1c18.1,0,29.1-8.2,29.1-23c0-14.2-10.8-21.1-27.3-21.1c-6.5,0-11.5,0.5-14.1,1.1V469.7z"/>
		</g>
	</g>
	<g>
		<g>
			<path class="st4" d="M625.4,473.7h-45.1v38.9h50.2v11.7h-65.2V416.5h62.6v11.7h-47.6v34.1h45.1V473.7L625.4,473.7z"/>
		</g>
	</g>
	<g>
		<g>
			<path class="st1" d="M711,419.6c7.6-1.4,18.4-2.2,28.7-2.2c16,0,26.3,2.7,33.5,8.8c5.8,4.8,9.1,12.2,9.1,20.5
				c0,14.2-9.6,23.7-21.8,27.5v0.5c8.9,2.9,14.3,10.6,17,21.7c3.8,15,6.5,25.4,8.9,29.6H771c-1.9-3-4.5-12.3-7.7-25.7
				c-3.4-14.9-9.6-20.5-23.2-20.9h-14.1v46.7h-15L711,419.6L711,419.6z M725.9,468.6h15.3c16,0,26.1-8.2,26.1-20.5
				c0-13.9-10.8-20-26.6-20.1c-7.2,0-12.4,0.6-14.8,1.3V468.6z"/>
		</g>
	</g>
	<g>
		<g>
			<polygon class="st1" points="605.4,204.9 684.5,204.9 686.1,237.5 605.4,237.5 			"/>
		</g>
	</g>
	<g>
		<g>
			<polygon class="st1" points="605.4,249 690.4,247.3 691.4,286.5 605.4,286.5 			"/>
		</g>
	</g>
	<g>
		<g>
			<polygon class="st5" points="512.5,315.8 512.5,348.4 593.2,348.4 591.7,315.8 			"/>
		</g>
	</g>
	<g>
		<g>
			<polygon class="st5" points="512.5,363.1 512.5,399 594.9,399 593.5,363.1 			"/>
		</g>
	</g>
	<g>
		<g>
			<path class="st5" d="M715.1,329.7c2.3-3.3,9.2-12.3,21.1-14.7c17.7-3.5,34.3,10.3,40.4,22.8c2.8,5.9,3.1,11,3.5,17.9
				c0.5,8.1,1,18.6-5.3,29.4c-2.4,4.1-8.3,14.2-21.1,17.9c-12.2,3.6-22.9-0.9-24.6-1.6c-21.3-9.4-22.7-36.9-22.8-40.8
				C705.8,346.8,711.2,335.9,715.1,329.7z"/>
		</g>
	</g>
	<g>
		<g>
			<rect x="598.4" y="428.4" class="st1" width="80.7" height="34.3"/>
		</g>
	</g>
	<g>
		<g>
			<rect x="598.4" y="474" class="st1" width="80.7" height="37.5"/>
		</g>
	</g>
</g>
</svg>
